<svg width="733" height="674" viewBox="0 0 733 674" fill="none" xmlns="http://www.w3.org/2000/svg">
<path d="M351.333 1.33332C293.6 5.06666 239.733 25.0667 192 60.5333C175.467 72.8 145.733 102.533 133.467 119.067C107.467 154.267 90.1333 192 80.9333 233.333C75.6 257.2 74.1333 270.667 74.1333 297.333C74.1333 332.4 77.8667 357.2 88.2667 389.067C95.0667 410.133 100.8 423.2 103.067 422.267C148 405.2 179.733 399.067 215.333 400.533C250.133 401.867 270 407.067 333.333 431.733C375.333 448 412.8 459.467 432 461.867C437.867 462.533 437.867 462.533 430.667 460.533C416 456.533 385.6 446.133 370 439.733C361.2 436.133 353.467 432.933 352.667 432.8C346.933 431.333 270.8 393.6 260 386.933C257.467 385.333 256.133 384 257.067 384C258.133 384 280.933 389.067 308 395.333C360.133 407.333 387.067 413.333 389.333 413.333C390.267 413.333 390.667 396.933 390.667 365.333V317.467L371.733 317.067L352.8 316.667L352.933 310.267C353.067 306.8 353.2 303.067 353.2 302C353.333 300.267 356.4 300 372 300H390.533L390.933 284.933L391.333 270H399.333H407.333L407.733 284.933L408.133 299.867L427.067 300.267L446 300.667L446.4 308.933L446.8 317.333H427.333H408V367.333V417.333L411.067 418C421.467 420.4 457.733 426.133 478.4 428.667L485.333 429.6V311.467V193.333H436H386.667V173.333V153.333H436H485.333V114V74.6667H506H526.667V114V153.333H576.667H626.667L626.8 159.333C626.8 162.667 626.8 168.667 626.8 172.667C626.8 176.667 626.8 182.933 626.8 186.667L626.667 193.333H576.667H526.667V312.667V432H551.067C564.4 432 580.267 431.6 586.4 431.067L597.333 430.267V377.2V324L581.733 324.133C556.133 324.4 558.667 325.333 558.667 316V308H578H597.333V292.667V277.333H605.333H613.333V292.667V308H632.667H652V316V324L647.067 324.133C644.267 324.267 635.6 324.267 627.733 324.267H613.333V376.8V429.467L620.4 428.8C693.733 420.667 697.467 420.133 667.067 421.067C639.333 421.867 640.533 422.533 645.867 410.533C651.2 398.267 658.4 374.267 661.867 357.067C681.733 258.133 651.733 158.667 580.267 87.2C520.267 27.2 436.8 -4.13334 351.333 1.33332Z" fill="#FF0000"/>
<path d="M710.667 440.8C688 455.467 665.867 468 640.533 480.267C628.133 486.267 617.467 491.333 616.667 491.6C616 491.733 608.133 494.667 599.333 498C539.867 520.933 480.533 526.667 422.667 515.2C395.733 509.867 384.933 506.533 328 486.267C249.467 458.4 218.133 452.533 157.333 453.733C122.667 454.4 107.067 456.133 74.6667 462.533C59.7333 465.6 18.4 476.133 18.9333 476.8C19.2 476.933 25.7333 476.133 33.3333 474.933C54.4 471.733 133.333 471.867 160.667 475.067C202 480 240.4 488 270.933 497.867C286.8 503.067 305.733 510.667 304.933 511.6C304.533 511.867 291.467 510.267 275.867 508.133C238 502.8 200.267 498.933 173.467 497.867C151.733 496.933 151.733 496.933 153.2 499.733C155.2 503.333 175.733 522.133 188.8 532.133C229.2 563.2 278.267 582.267 334.133 588.8C358.8 591.733 406.267 590.8 431.333 586.933C520.133 573.2 605.6 535.733 676 479.333C692.133 466.4 730 430.667 727.333 430.8C726.667 430.933 719.067 435.333 710.667 440.8Z" fill="#FF0000"/>
</svg>
