<?xml version="1.0" standalone="no"?>
<!DOCTYPE svg PUBLIC "-//W3C//DTD SVG 20010904//EN"
 "http://www.w3.org/TR/2001/REC-SVG-20010904/DTD/svg10.dtd">
<svg version="1.0" xmlns="http://www.w3.org/2000/svg"
 width="1125.000000pt" height="750.000000pt" viewBox="0 0 1125.000000 750.000000"
 preserveAspectRatio="xMidYMid meet">

<g transform="translate(0.000000,750.000000) scale(0.100000,-0.100000)"
fill="#000000" stroke="none">
<path d="M0 3750 l0 -3750 173 0 174 0 17 43 c36 88 39 91 132 137 50 25 99
53 108 62 21 22 26 22 55 2 28 -20 101 -175 101 -215 l0 -29 173 0 c111 0 177
4 184 11 8 8 13 8 17 0 5 -8 434 -11 1495 -11 l1488 0 -5 28 c-3 23 4 33 42
61 25 19 46 39 46 44 0 6 26 35 59 66 48 46 62 67 77 116 10 33 23 65 30 70 6
6 14 22 18 37 3 15 12 32 19 38 52 43 75 58 94 64 20 6 84 79 155 174 15 20
27 47 28 60 0 13 4 21 9 18 10 -7 68 21 106 51 22 19 25 26 16 37 -7 8 -11 20
-10 28 1 7 -1 21 -5 30 -7 16 12 48 28 48 3 0 17 -18 31 -40 25 -39 26 -40 50
-24 16 11 36 14 57 11 80 -14 97 -20 91 -30 -4 -7 5 -8 26 -4 41 8 101 37 101
47 0 9 59 24 66 17 3 -2 -8 -17 -23 -33 -34 -36 -79 -50 -157 -49 -45 1 -53
-1 -35 -8 13 -4 66 -8 117 -9 84 0 92 -1 80 -16 -14 -17 -17 -17 55 5 21 6 21
6 5 -10 -9 -9 -25 -17 -34 -17 -10 0 -38 -7 -62 -17 -30 -11 -39 -19 -30 -24
11 -7 11 -9 0 -9 -7 0 -20 -7 -28 -15 -14 -13 -13 -15 3 -15 17 -1 17 -1 0
-14 -11 -9 -14 -17 -8 -20 14 -9 58 3 113 30 53 27 102 34 58 9 -14 -8 -20
-14 -13 -15 6 0 9 -9 6 -22 -4 -17 9 -8 46 32 32 34 50 62 49 75 -2 15 3 20
19 20 30 0 234 253 227 281 -3 13 7 34 27 59 24 30 30 34 24 16 -6 -18 -4 -22
6 -15 8 5 6 -4 -5 -21 -12 -18 -14 -26 -5 -19 22 16 133 103 146 114 7 6 16
10 20 10 4 0 29 25 56 54 51 59 61 84 27 66 -11 -6 -20 -7 -20 -3 0 13 58 180
70 202 6 12 15 57 20 102 5 44 13 85 17 92 4 7 8 63 8 125 0 127 7 142 72 142
26 0 36 -6 45 -26 11 -24 9 -28 -33 -65 l-44 -39 47 0 c35 0 54 -6 77 -26 34
-29 39 -44 15 -44 -27 0 2 -27 35 -33 20 -4 37 -20 57 -51 16 -25 33 -46 38
-46 17 0 138 109 331 299 110 108 214 207 230 219 l30 22 -27 21 c-16 11 -28
28 -28 38 0 19 80 139 142 214 30 36 47 47 68 47 16 0 31 4 34 9 3 5 16 7 29
4 19 -4 20 -3 6 9 -11 9 -14 19 -8 33 4 11 8 37 8 57 1 42 19 88 34 88 6 0 21
10 34 22 l23 21 1 -44 c2 -63 -2 -100 -11 -125 -7 -19 -5 -22 18 -22 17 0 35
9 49 26 20 23 23 24 29 8 4 -9 2 -27 -4 -39 -6 -12 -19 -50 -28 -84 -9 -35
-20 -63 -25 -63 -4 0 -16 -16 -25 -36 -9 -20 -26 -39 -37 -43 -22 -8 -20 -11
52 -69 l41 -34 -41 -46 c-22 -26 -48 -59 -57 -74 -9 -16 -19 -28 -23 -28 -3 0
-38 23 -77 50 -71 50 -89 59 -77 40 12 -19 -48 -92 -116 -140 -15 -11 -30 -28
-33 -38 -3 -10 -20 -23 -37 -29 -17 -7 -28 -16 -26 -20 3 -5 2 -15 -4 -23 -7
-13 -9 -13 -9 -1 0 10 -8 7 -25 -9 -14 -13 -25 -31 -25 -40 0 -9 -14 -26 -30
-38 -17 -13 -30 -29 -30 -37 0 -8 -7 -15 -15 -15 -8 0 -14 -3 -13 -7 3 -16
-15 -43 -28 -43 -8 0 -14 -9 -14 -20 0 -11 -7 -23 -15 -26 -8 -3 -24 -27 -35
-52 -12 -26 -26 -54 -31 -62 -5 -8 -16 -28 -25 -45 -9 -16 -31 -46 -50 -65
-40 -41 -94 -110 -94 -120 0 -4 -11 -12 -24 -18 -13 -6 -27 -20 -31 -32 -5
-15 -12 -19 -26 -15 -13 4 -19 2 -19 -9 0 -9 -6 -16 -13 -16 -8 0 -24 -11 -37
-25 -13 -14 -33 -25 -45 -25 -12 0 -40 -20 -65 -46 -25 -25 -62 -53 -82 -61
-21 -8 -38 -21 -38 -29 0 -15 -49 -44 -75 -44 -8 0 -15 -7 -15 -15 0 -8 -9
-15 -19 -15 -19 0 -161 -148 -161 -167 0 -6 8 -17 18 -27 18 -15 22 -15 63 6
24 13 49 31 56 40 15 18 122 82 139 83 16 0 104 94 104 111 0 24 19 16 26 -11
3 -14 10 -22 16 -19 5 3 8 0 7 -7 -1 -8 1 -31 5 -51 7 -30 4 -43 -13 -67 -19
-27 -67 -111 -95 -168 -6 -13 -14 -23 -17 -23 -16 0 -84 -64 -81 -76 2 -8 -5
-14 -14 -14 -9 0 -32 -16 -53 -37 -27 -27 -47 -37 -78 -41 -26 -3 -43 -10 -43
-18 0 -21 -42 -44 -82 -44 -20 0 -43 -7 -52 -15 -8 -8 -30 -15 -48 -15 -23 0
-47 -11 -77 -35 -25 -20 -51 -33 -58 -31 -21 8 -43 -5 -43 -25 0 -16 -63 -69
-83 -69 -4 0 -35 -23 -68 -50 -36 -30 -78 -55 -105 -62 -28 -8 -43 -17 -40
-25 14 -37 -88 36 -110 78 -11 23 -21 30 -35 26 -10 -3 -22 -1 -25 4 -3 5 0 9
5 9 6 0 18 17 26 37 9 21 26 49 38 63 25 29 14 21 -63 -43 -64 -54 -67 -56
-73 -51 -2 2 -10 -2 -17 -11 -17 -20 -29 -19 -23 3 5 21 -30 56 -49 49 -8 -3
-5 -6 6 -6 19 -1 19 -2 2 -14 -18 -13 -18 -15 3 -34 l22 -20 -28 -6 c-33 -6
-40 -2 -25 16 7 8 7 18 2 27 -8 12 -10 11 -10 -6 0 -12 -7 -24 -15 -27 -11 -5
-13 0 -9 26 8 41 34 125 79 252 20 55 40 114 44 130 18 66 41 105 66 115 15 6
59 10 98 11 40 0 81 4 92 8 32 13 -39 19 -127 12 -75 -6 -77 -6 -76 16 2 20 7
21 53 18 l50 -3 -34 14 c-37 15 -70 18 -88 6 -6 -4 -24 -32 -39 -62 -15 -30
-38 -68 -51 -83 -12 -16 -23 -41 -23 -56 0 -15 -7 -36 -15 -47 -8 -10 -15 -28
-15 -39 0 -11 -11 -42 -25 -70 -27 -56 -30 -76 -14 -92 8 -8 8 -17 0 -32 -9
-15 -8 -26 1 -41 11 -18 10 -23 -12 -40 -24 -18 -24 -19 -5 -39 14 -17 16 -24
7 -33 -7 -7 -12 -26 -12 -44 0 -17 -7 -37 -15 -44 -8 -7 -15 -25 -15 -40 0
-32 -18 -49 -91 -90 l-54 -30 596 0 597 0 6 26 c10 37 171 195 289 283 59 45
120 101 158 147 33 41 65 74 71 74 7 0 7 -5 -1 -14 -6 -7 -9 -20 -6 -28 3 -8
-3 -39 -14 -69 -17 -48 -29 -94 -46 -181 -3 -15 -15 -37 -28 -48 -18 -17 -22
-32 -22 -78 0 -31 -4 -69 -9 -84 l-8 -28 386 0 387 0 25 56 c15 35 27 83 30
132 4 47 14 90 25 110 11 20 19 53 19 81 0 27 6 53 13 59 21 17 170 24 238 12
35 -7 74 -14 87 -16 19 -4 23 -10 21 -37 -4 -59 12 -97 68 -152 l54 -55 122 0
c77 0 144 -6 180 -15 72 -19 127 -19 151 -2 15 11 20 32 24 92 4 69 9 86 42
136 36 56 37 60 27 108 -8 41 -7 55 6 75 32 49 119 76 166 52 75 -39 203 3
297 98 16 17 46 42 65 56 19 13 72 65 119 115 47 50 119 112 162 141 42 28 84
58 93 67 19 20 54 21 108 6 55 -15 69 -53 75 -211 5 -145 -6 -219 -44 -299
-56 -115 -135 -178 -272 -220 -23 -6 -42 -16 -42 -21 0 -5 -19 -17 -42 -28
-47 -21 -145 -75 -162 -89 -6 -4 -42 -19 -81 -31 -136 -44 -156 -66 -147 -163
l4 -57 280 0 c273 0 279 0 311 23 18 12 34 25 35 30 2 4 8 7 13 7 5 0 45 29
90 65 44 36 93 72 107 81 15 9 38 32 50 53 27 42 72 71 126 78 35 5 66 -9 66
-29 0 -18 -86 -88 -115 -93 -59 -12 -86 -28 -108 -65 -21 -36 -122 -130 -139
-130 -4 0 -8 -4 -8 -10 0 -7 325 -10 956 -10 587 0 953 4 949 9 -3 5 -1 12 5
16 5 3 10 -1 10 -9 0 -14 22 -16 165 -16 l165 0 0 3750 0 3750 -4013 0 -4014
0 -18 -40 c-33 -72 -39 -75 -208 -78 -94 -3 -165 0 -189 7 -37 12 -38 13 -38
61 l0 50 -1385 0 -1385 0 0 -3750z m3962 3076 c53 -8 101 -17 107 -21 6 -3 83
-6 171 -6 91 0 162 -4 165 -9 4 -6 17 -10 30 -10 13 0 27 -4 30 -10 3 -5 14
-10 23 -10 9 0 40 -12 69 -26 l52 -27 85 22 c114 28 170 27 232 -4 27 -14 57
-36 66 -49 23 -32 33 -121 19 -172 -10 -37 -18 -45 -68 -71 -31 -16 -58 -34
-61 -41 -2 -6 9 -24 24 -39 40 -40 64 -111 64 -193 0 -38 -4 -71 -9 -74 -4 -3
-11 -19 -14 -35 -4 -20 -17 -35 -37 -46 -17 -9 -61 -46 -98 -84 -37 -37 -76
-71 -87 -75 -11 -3 -37 -22 -58 -41 -41 -38 -74 -44 -110 -21 -61 39 -296 58
-519 44 -101 -7 -178 -23 -178 -37 0 -21 -233 -59 -291 -47 -70 15 -129 18
-161 7 -25 -8 -58 -6 -138 7 -191 32 -207 54 -202 270 4 152 8 172 63 287 22
47 34 87 35 120 5 145 47 252 123 313 25 20 48 39 51 42 33 33 60 46 109 52
82 10 401 0 513 -16z m4143 -1110 c28 -13 64 -36 80 -52 17 -16 46 -42 66 -57
44 -33 65 -94 55 -162 -9 -56 -48 -95 -125 -125 -84 -32 -132 -35 -209 -15
-88 23 -138 49 -181 93 -31 33 -35 42 -39 109 l-5 74 59 54 c81 75 177 120
229 108 11 -3 43 -15 70 -27z m-1845 -168 c19 -9 68 -28 108 -44 40 -15 77
-33 83 -41 7 -7 10 -33 7 -61 -4 -38 -12 -54 -44 -86 l-39 -39 -85 1 c-47 1
-96 6 -110 11 -30 11 -79 24 -100 26 -8 1 -20 3 -27 4 -21 2 -53 85 -53 136 0
43 5 54 35 85 l35 35 77 -6 c43 -3 94 -12 113 -21z m651 -18 c32 0 99 -63 99
-93 0 -10 5 -27 11 -39 9 -16 17 -19 45 -13 31 5 34 4 34 -18 0 -13 -11 -36
-25 -51 -14 -15 -25 -33 -25 -41 0 -33 -77 -46 -139 -24 -38 13 -108 74 -126
109 -18 37 -27 90 -14 90 6 0 8 7 5 16 -4 9 5 27 22 45 21 23 33 28 56 24 16
-3 41 -5 57 -5z m-2607 -605 c20 -9 60 -17 89 -19 28 -2 69 -11 89 -19 20 -9
46 -13 57 -10 43 11 91 -8 137 -53 25 -24 49 -44 53 -44 4 0 13 -11 19 -25 32
-69 -10 -201 -71 -226 -17 -7 -44 -21 -58 -32 -26 -19 -45 -21 -169 -18 -36 0
-94 0 -129 -2 -54 -2 -65 0 -69 15 -2 10 -11 18 -18 18 -8 0 -17 7 -20 15 -4
8 -14 15 -23 15 -9 0 -35 18 -56 40 -36 37 -65 51 -65 32 0 -4 -16 -25 -35
-46 -28 -31 -38 -36 -49 -27 -20 17 -31 -5 -12 -24 24 -25 30 -56 12 -73 -14
-14 -18 -14 -38 5 -21 19 -28 20 -76 10 -51 -11 -54 -10 -73 13 -10 14 -19 33
-19 43 0 9 -4 17 -10 17 -5 0 -10 7 -10 16 0 9 -9 28 -19 43 -10 14 -20 35
-22 46 -3 25 9 109 22 152 14 43 88 109 140 123 107 29 367 38 423 15z m2960
-87 c44 -30 52 -40 73 -103 38 -112 43 -135 43 -218 0 -109 -14 -157 -64 -211
-54 -59 -110 -74 -212 -57 -54 9 -80 20 -109 43 -58 49 -75 95 -74 213 0 87 3
108 27 161 33 74 46 92 95 128 20 16 37 34 37 40 0 17 47 34 95 35 30 1 53 -7
89 -31z m-1274 -298 c12 -12 20 -33 20 -52 0 -17 -3 -28 -7 -24 -4 3 -20 -7
-37 -23 -17 -16 -40 -31 -51 -33 -17 -2 -21 3 -23 36 -8 96 46 148 98 96z
m-190 -60 c26 -26 25 -39 -8 -80 -63 -80 -68 -135 -12 -147 38 -7 49 -23 21
-30 -33 -8 -52 -95 -29 -132 25 -41 -34 -163 -65 -132 -16 16 -17 305 -1 321
7 7 8 25 3 53 -14 71 -10 113 12 141 24 31 52 33 79 6z m464 -46 c9 -8 16 -21
17 -27 3 -28 -3 -73 -10 -80 -8 -8 -80 29 -93 48 -22 30 6 75 47 75 13 0 31
-7 39 -16z m-2266 -66 c17 -17 15 -58 -5 -80 -27 -30 -43 -22 -43 21 0 66 18
89 48 59z m-134 -153 c15 -14 33 -25 40 -25 9 0 15 -19 18 -58 5 -51 10 -61
51 -102 36 -37 46 -55 52 -93 4 -28 14 -51 24 -56 18 -10 70 -3 88 11 8 7 24
6 44 -1 45 -16 69 -14 110 8 40 22 45 20 81 -29 25 -34 45 -84 67 -167 9 -34
20 -48 55 -68 23 -14 57 -25 74 -25 l32 0 0 83 c0 45 -5 100 -11 122 -15 53
-15 152 0 196 34 102 177 141 211 58 23 -54 -20 -233 -58 -246 -25 -9 -52 -45
-52 -71 0 -13 15 -42 33 -65 57 -72 70 -112 75 -224 5 -117 -10 -222 -40 -274
-19 -34 -22 -36 -48 -26 -25 9 -34 7 -71 -19 -23 -16 -57 -39 -75 -52 -30 -20
-34 -27 -34 -68 0 -40 -5 -49 -46 -89 -69 -67 -86 -64 -175 39 -41 47 -83 88
-94 92 -11 4 -35 20 -54 35 -21 17 -39 25 -45 20 -6 -4 -21 -11 -34 -14 -27
-6 -42 19 -73 121 -12 37 -29 85 -39 108 -10 22 -24 62 -31 90 -7 27 -18 58
-26 69 -19 28 -16 102 6 163 11 29 19 54 19 55 0 1 3 23 7 49 8 51 -2 78 -58
165 -17 27 -27 57 -27 80 -1 49 -16 68 -82 102 -42 22 -54 33 -56 55 -8 66 89
100 142 51z m2340 -11 c27 -10 19 -34 -11 -34 -16 0 -38 -3 -50 -6 -18 -5 -23
-2 -23 13 0 11 3 23 7 26 8 9 56 9 77 1z m-720 -36 c20 -29 21 -49 1 -41 -9 3
-24 -2 -35 -12 -16 -15 -22 -15 -35 -5 -18 15 -20 51 -3 68 19 19 55 14 72
-10z m504 -49 c-2 -6 -8 -10 -13 -10 -5 0 -11 4 -13 10 -2 6 4 11 13 11 9 0
15 -5 13 -11z m-1682 -64 c4 -33 3 -36 -11 -25 -8 7 -15 28 -15 48 0 47 19 30
26 -23z m1835 18 c46 -34 49 -49 9 -55 -35 -5 -70 25 -70 60 0 29 14 28 61 -5z
m1178 2 c31 -15 41 -33 41 -71 0 -13 9 -41 20 -61 13 -25 20 -57 20 -96 0 -60
10 -141 35 -282 8 -44 18 -111 21 -150 4 -40 17 -89 30 -115 13 -26 24 -67 25
-95 1 -28 8 -62 15 -76 21 -42 63 -49 65 -11 0 13 2 12 9 -5 6 -13 3 -38 -6
-70 -9 -26 -17 -55 -19 -63 -8 -34 -35 -87 -51 -101 -15 -12 -16 -9 -9 51 5
43 14 72 27 86 11 12 16 24 11 27 -10 7 -56 -39 -66 -66 -4 -9 -18 -22 -32
-27 -29 -11 -87 -23 -67 -14 7 4 12 27 12 65 0 33 7 76 15 96 20 46 19 67 -1
59 -9 -3 -25 4 -40 19 -18 19 -31 24 -50 19 -17 -4 -24 -2 -24 9 0 8 -7 18
-15 21 -9 3 -15 1 -14 -7 3 -18 -12 -77 -21 -82 -12 -7 -21 87 -13 141 7 45 8
47 14 19 5 -24 7 -25 8 -7 1 25 31 31 31 6 0 -12 6 -10 21 10 11 14 27 26 35
26 10 0 14 14 15 48 1 46 3 62 9 72 1 3 3 17 4 32 0 14 4 30 9 34 4 4 7 18 7
31 0 14 6 23 15 23 14 0 13 3 -2 24 -21 28 -33 27 -70 -2 -15 -12 -34 -22 -43
-21 -10 0 -9 3 5 9 18 8 18 9 2 9 -15 1 -17 6 -12 30 3 17 2 32 -4 36 -6 3
-11 1 -11 -5 0 -6 -4 -9 -10 -5 -5 3 -9 31 -9 62 l1 57 19 -25 c10 -13 19 -32
19 -41 0 -10 3 -18 6 -18 10 0 32 26 35 41 4 25 -13 69 -27 69 -10 0 -14 14
-15 48 -1 46 -1 47 -10 14 -5 -18 -14 -30 -20 -26 -7 4 -6 10 1 19 8 9 6 14
-6 19 -13 5 -15 14 -10 47 4 24 3 38 -3 35 -5 -3 -12 -29 -16 -56 -4 -27 -11
-52 -15 -55 -5 -3 -16 18 -25 46 -14 49 -14 54 2 71 11 13 26 18 41 15 23 -5
24 -3 18 47 -6 48 -5 53 16 64 13 6 24 11 26 11 2 1 16 -6 31 -14z m-1489 1
c0 -3 -4 -8 -10 -11 -5 -3 -10 -1 -10 4 0 6 5 11 10 11 6 0 10 -2 10 -4z
m-245 -117 c11 -20 32 -50 46 -68 l26 -33 32 17 c18 9 39 14 46 12 21 -9 58
-95 51 -122 -3 -13 -2 -27 4 -30 17 -10 11 -34 -11 -46 -12 -6 -40 -12 -63
-14 -22 -2 -44 -4 -47 -4 -4 -1 -10 -9 -13 -18 -8 -19 9 -33 44 -33 33 -1 57
-20 62 -50 2 -18 11 -26 35 -31 18 -3 40 -12 48 -19 18 -15 17 -16 40 30 18
35 39 60 50 60 3 0 23 16 43 36 52 51 88 67 128 59 24 -4 34 -11 34 -24 0 -24
45 -72 62 -65 7 2 29 33 48 67 55 96 114 152 183 172 63 18 92 15 127 -13 33
-27 19 -52 -53 -92 -34 -19 -88 -60 -119 -90 -52 -50 -58 -60 -58 -96 0 -49
-9 -61 -80 -108 -30 -21 -73 -54 -95 -75 -41 -39 -82 -66 -168 -108 -43 -21
-57 -23 -123 -17 -41 4 -77 11 -80 15 -3 5 -16 9 -29 9 -14 0 -25 7 -28 18 -3
10 -5 6 -6 -11 -2 -52 -27 -95 -65 -111 -40 -17 -44 -32 -20 -78 17 -33 18
-22 -17 -328 -7 -69 -29 -164 -46 -200 -7 -16 -28 -106 -43 -185 -5 -27 -16
-66 -23 -85 -8 -19 -26 -84 -41 -143 -14 -60 -35 -128 -46 -150 -43 -91 -77
-147 -84 -140 -4 5 -5 -3 -1 -17 4 -19 0 -33 -17 -52 -20 -23 -25 -25 -41 -13
-10 7 -18 21 -18 32 0 23 27 145 46 203 7 25 19 72 25 105 7 33 41 166 77 295
72 261 113 433 138 590 10 58 24 117 31 132 16 30 19 183 5 220 -4 13 -12 102
-16 199 l-7 177 34 11 c31 10 68 42 68 59 0 4 -13 20 -30 35 -16 16 -30 34
-30 41 0 8 -13 30 -30 51 -31 39 -40 70 -17 63 6 -3 21 -20 32 -39z m323 -24
c28 -14 34 -14 68 0 50 21 62 19 103 -12 20 -16 41 -28 46 -28 14 0 19 -95 5
-109 -8 -8 -13 -7 -19 3 -5 7 -30 16 -57 19 -34 4 -54 12 -66 28 -16 20 -25
22 -71 17 -58 -6 -87 10 -87 47 0 51 23 62 78 35z m1322 -156 c0 -11 -4 -17
-10 -14 -5 3 -10 13 -10 21 0 8 5 14 10 14 6 0 10 -9 10 -21z m920 -54 c21
-22 31 -77 17 -92 -3 -2 1 -28 7 -57 17 -72 7 -406 -13 -430 -11 -14 -11 -29
4 -99 22 -106 18 -245 -7 -271 -10 -10 -18 -23 -18 -29 0 -7 -4 -6 -9 3 -6 7
-12 48 -16 90 -3 41 -11 95 -16 120 -8 35 -6 55 6 89 17 49 13 75 -18 143 -18
37 -31 51 -69 69 -44 20 -48 26 -48 57 0 19 8 49 19 66 13 23 20 61 25 141 4
61 9 121 11 135 2 14 4 32 4 40 1 15 53 46 82 49 8 0 26 -10 39 -24z m-920
-78 c-4 -4 -4 -28 0 -52 4 -24 3 -50 -1 -57 -9 -14 -9 -14 -33 69 -14 50 -14
52 5 58 10 4 19 14 20 23 1 10 4 7 8 -8 5 -14 5 -29 1 -33z m45 -147 c3 -5 -1
-10 -9 -10 -9 0 -16 -9 -16 -20 0 -11 -4 -20 -9 -20 -10 0 -9 14 4 43 8 19 21
22 30 7z m-28 -107 c-3 -10 -5 -4 -5 12 0 17 2 24 5 18 2 -7 2 -21 0 -30z
m514 -29 c32 -29 24 -44 -25 -44 -45 0 -56 -10 -56 -51 0 -30 -25 -12 -45 33
-20 46 -14 65 25 84 26 14 73 3 101 -22z m-140 -144 c5 0 9 -5 9 -11 0 -6 -6
-9 -14 -6 -8 3 -17 1 -20 -6 -2 -7 -5 2 -5 20 -1 17 2 40 7 50 5 14 8 11 10
-14 2 -18 7 -33 13 -33z m383 -175 c21 -38 17 -87 -10 -116 -20 -22 -43 -120
-44 -182 0 -27 -5 -58 -11 -70 -22 -44 -93 -147 -101 -147 -4 0 -15 -15 -24
-32 -9 -18 -20 -35 -24 -38 -10 -7 -55 -108 -70 -155 -18 -59 -49 -105 -70
-105 -10 0 -22 -4 -25 -10 -3 -5 -14 -10 -25 -10 -10 0 -38 -19 -63 -43 -43
-40 -44 -44 -31 -67 7 -14 13 -32 14 -41 0 -9 7 -22 15 -29 24 -20 18 -58 -17
-108 -18 -26 -38 -51 -44 -57 -23 -20 -83 -114 -90 -139 -3 -14 -12 -30 -19
-36 -7 -5 -10 -21 -7 -35 2 -14 0 -25 -5 -25 -5 0 -8 -25 -7 -55 1 -30 -2 -57
-7 -61 -5 -3 -9 -12 -9 -21 0 -8 -8 -27 -19 -41 -34 -49 -88 -156 -106 -212
-32 -99 -145 -245 -265 -340 -36 -29 -84 -69 -107 -91 -23 -21 -44 -39 -47
-39 -3 0 -30 -18 -61 -39 -85 -60 -102 -61 -201 -12 -46 23 -84 47 -84 52 0 6
-4 7 -10 4 -15 -10 -12 8 7 35 10 14 56 73 103 131 99 123 129 163 144 188 6
11 34 53 61 94 28 42 68 105 90 142 66 109 156 225 236 305 42 41 100 102 129
135 29 33 67 76 84 95 18 19 46 55 63 80 18 25 48 63 67 84 20 22 37 44 37 50
5 40 4 66 -3 66 -6 0 -18 -13 -79 -93 -15 -19 -19 -19 -48 -8 -38 16 -39 28
-6 43 14 6 25 14 25 17 0 3 11 19 25 35 29 33 28 50 -2 54 -12 2 -23 12 -26
23 -6 21 1 23 37 9 19 -7 29 -5 41 7 14 14 18 14 35 -2 11 -10 20 -25 20 -34
0 -9 14 0 38 25 81 87 132 149 132 161 0 7 5 13 10 13 6 0 10 6 10 13 0 7 10
24 21 36 22 23 69 90 133 186 18 28 41 58 51 68 44 44 56 88 56 197 0 140 9
168 59 179 3 0 14 -15 24 -34z m-3894 -196 c11 -26 10 -36 -3 -65 -10 -19 -17
-41 -17 -48 0 -8 -6 -16 -14 -19 -26 -10 -45 -64 -35 -100 14 -50 11 -79 -16
-135 -14 -29 -25 -55 -25 -59 0 -10 -59 -57 -81 -65 -16 -6 -29 -55 -29 -114
0 -19 -19 -61 -53 -115 -30 -46 -60 -98 -67 -116 -27 -62 -80 -50 -100 22 -11
38 -11 56 0 101 18 76 6 88 -58 54 -39 -21 -48 -31 -55 -65 -5 -22 -6 -75 -3
-119 5 -66 13 -93 50 -170 24 -50 52 -113 61 -140 23 -72 113 -171 174 -191
45 -15 81 -13 81 5 0 4 19 15 43 26 49 21 141 75 145 85 2 4 23 33 47 65 25
33 45 64 45 71 0 21 21 25 35 7 16 -21 18 -87 6 -151 -10 -50 -79 -138 -125
-157 -17 -7 -61 -19 -98 -26 -38 -8 -68 -16 -68 -19 1 -3 8 -15 18 -26 14 -17
28 -20 87 -19 39 1 79 3 89 5 13 3 22 -4 29 -24 8 -25 5 -33 -18 -57 -29 -30
-73 -44 -104 -32 -11 4 -37 24 -59 44 -38 35 -45 37 -115 41 -83 4 -123 22
-133 61 -5 21 -12 24 -47 24 -23 0 -62 7 -87 16 -25 8 -57 16 -71 16 -14 0
-34 9 -44 20 -10 11 -27 20 -37 20 -13 0 -20 9 -24 29 -5 25 -12 30 -38 33
-24 2 -32 8 -35 28 -1 14 -15 43 -30 65 -83 124 -78 225 13 282 23 14 43 27
45 29 2 2 7 26 12 53 11 72 52 155 91 182 18 13 43 35 55 50 28 33 89 52 130
40 28 -8 36 -5 82 34 28 24 56 45 63 47 10 4 10 10 0 32 -6 15 -12 40 -12 56
0 25 4 30 24 30 16 0 39 17 70 53 26 28 54 59 62 68 16 18 18 47 5 83 -8 19
-4 35 15 75 23 46 83 111 103 111 5 0 14 -14 21 -31z m3200 -679 c0 -5 -7 -10
-15 -10 -8 0 -15 5 -15 10 0 6 7 10 15 10 8 0 15 -4 15 -10z m-30 -80 c0 -5
-2 -10 -4 -10 -3 0 -8 5 -11 10 -3 6 -1 10 4 10 6 0 11 -4 11 -10z m-2462 -17
c12 -10 30 -42 41 -72 23 -61 21 -82 -3 -30 -16 37 -39 69 -50 69 -3 0 -6 -13
-6 -30 0 -16 -4 -30 -10 -30 -14 0 -12 -27 3 -34 7 -4 8 -8 2 -11 -35 -18 -40
-24 -28 -36 6 -6 9 -18 6 -25 -4 -10 0 -12 11 -8 12 5 15 2 10 -10 -3 -9 -15
-16 -26 -16 -11 0 -16 -4 -12 -11 4 -7 21 -9 45 -5 24 4 39 2 39 -4 0 -5 -4
-10 -9 -10 -6 0 -8 -9 -6 -20 2 -12 -2 -20 -10 -20 -8 0 -11 -7 -8 -20 4 -14
0 -20 -11 -20 -22 0 -21 -40 2 -41 16 -1 16 -2 -1 -6 -25 -6 -11 -23 20 -23
36 0 22 -11 -15 -12 -19 -1 -29 -5 -26 -13 6 -14 -23 -41 -33 -31 -4 4 -3 14
3 23 7 12 7 27 -2 53 -10 30 -27 141 -39 263 -3 29 -27 62 -57 78 -15 8 -18 5
-18 -21 0 -18 4 -29 10 -25 14 9 12 -19 -2 -33 -9 -9 -8 -12 6 -12 11 0 16 -5
13 -14 -3 -7 0 -19 6 -26 9 -10 8 -12 -6 -7 -15 6 -16 4 -5 -16 7 -12 11 -25
10 -29 -1 -4 5 -5 13 -2 20 8 19 -11 -1 -41 -9 -14 -12 -25 -8 -25 5 0 10 -20
10 -45 2 -43 1 -45 -25 -43 -33 4 -49 33 -61 112 -5 34 -13 73 -16 88 -5 21
-2 27 17 33 l24 8 -23 8 c-12 5 -22 16 -22 24 0 9 -4 14 -9 10 -13 -8 -24 32
-17 61 8 30 60 58 92 50 14 -4 32 -15 41 -26 16 -19 17 -19 31 1 27 39 78 49
110 22z m959 -25 c-3 -8 -6 -5 -6 6 -1 11 2 17 5 13 3 -3 4 -12 1 -19z m-742
-24 c36 -23 48 -71 70 -284 6 -60 17 -94 37 -110 10 -8 20 -28 22 -45 2 -16 1
-23 -1 -15 -3 8 -12 24 -20 35 -14 18 -15 17 -8 -20 7 -39 34 -101 35 -78 0 6
14 -3 31 -20 l32 -31 18 22 c22 28 59 125 59 156 0 12 11 49 24 82 22 53 27
59 56 62 20 2 39 -3 51 -14 26 -24 24 -44 -5 -44 -17 0 -27 -9 -36 -30 -7 -16
-19 -30 -26 -30 -20 0 -17 -10 8 -37 26 -28 19 -37 -35 -42 -5 -1 -7 -15 -5
-33 2 -23 -4 -39 -24 -61 -16 -16 -28 -36 -28 -44 0 -8 -10 -23 -22 -33 -18
-14 -23 -29 -24 -69 -1 -28 -2 -55 -3 -61 0 -5 -19 -10 -41 -10 -31 0 -38 -3
-34 -15 5 -11 -1 -15 -20 -15 -24 0 -26 2 -20 37 3 20 15 48 25 63 19 24 22
61 8 85 -3 6 -12 39 -19 75 -6 36 -19 80 -27 98 -8 18 -16 43 -19 55 -2 12 -8
43 -12 70 -6 29 -6 47 0 47 13 0 0 59 -19 89 -8 13 -11 26 -7 30 12 8 16 51 5
51 -5 0 -16 15 -25 33 l-17 32 5 -51 c3 -32 0 -56 -7 -63 -8 -8 -7 -11 6 -11
10 0 17 -8 17 -20 0 -11 -7 -20 -15 -20 -8 0 -15 -4 -15 -9 0 -5 -12 -12 -26
-15 -25 -7 -26 -8 -8 -21 11 -8 31 -11 47 -8 20 4 27 2 27 -10 0 -9 -8 -21
-17 -26 -10 -6 -15 -11 -10 -11 4 0 -1 -17 -12 -39 l-20 -38 22 -12 c20 -11
20 -11 -8 -7 l-30 5 30 -14 c29 -14 30 -14 5 -15 l-25 -1 25 -14 25 -14 -25
-9 c-14 -5 -32 -7 -40 -4 -13 5 -13 3 -1 -11 11 -15 11 -17 -2 -17 -19 0 -29
27 -18 48 11 22 6 179 -8 267 -16 94 -16 142 -1 160 16 20 64 19 95 -1z m747
-46 c2 -13 1 -48 -3 -78 -3 -30 -7 -49 -8 -42 0 7 -6 10 -13 6 -8 -5 -9 -2 -5
10 4 10 7 42 7 72 0 54 14 74 22 32z m2508 -157 c0 -40 -19 -49 -42 -21 -19
23 -19 25 -2 37 29 21 44 16 44 -16z m-7279 -83 c24 -30 24 -44 -2 -51 -13 -4
-22 0 -25 11 -3 9 -10 25 -15 34 -12 24 -12 28 7 28 9 0 24 -10 35 -22z m4247
-64 c1 -10 -2 -26 -8 -34 -15 -23 -34 3 -26 35 8 29 30 29 34 -1z m607 5 c16
-8 31 -23 33 -33 4 -17 -1 -19 -53 -13 -31 3 -67 2 -80 -3 -27 -10 -33 -1 -27
42 4 27 6 28 51 25 26 -2 60 -10 76 -18z m-1207 -14 c3 -3 1 -5 -4 -5 -5 0
-15 -4 -22 -9 -21 -13 6 -61 39 -68 18 -3 26 -10 22 -19 -3 -8 1 -14 11 -14 9
0 16 -4 16 -10 0 -13 -16 -13 -40 0 -13 7 -21 7 -25 0 -3 -5 -1 -10 6 -10 8 0
8 -4 -1 -15 -11 -13 -16 -11 -39 11 -28 26 -64 49 -94 60 -9 4 -20 18 -24 32
-5 19 0 30 18 45 19 15 33 18 78 13 30 -3 57 -8 59 -11z m5138 -10 c20 -15 35
-38 39 -57 4 -18 11 -37 15 -43 3 -5 15 -37 24 -70 10 -33 24 -77 32 -98 17
-46 18 -97 2 -134 -19 -45 -84 -117 -122 -138 -20 -11 -36 -23 -36 -27 0 -4
-9 -12 -20 -18 -16 -9 -29 -4 -71 25 -60 41 -70 42 -129 13 -59 -30 -61 -50
-12 -83 33 -22 48 -25 86 -21 40 5 46 3 46 -13 0 -10 -7 -24 -15 -31 -8 -7
-15 -19 -15 -26 0 -8 -6 -14 -13 -14 -8 0 -22 -9 -32 -20 -10 -11 -26 -20 -37
-20 -15 0 -18 8 -18 45 0 39 -3 45 -20 45 -27 0 -88 -32 -122 -64 -42 -40 -58
-34 -58 19 0 38 -4 47 -24 56 -26 12 -60 85 -78 170 -10 47 -9 63 7 113 19 61
53 102 137 166 26 19 54 52 63 73 12 26 34 49 73 74 32 20 80 51 107 69 66 43
141 47 191 9z m-5086 -51 c0 -17 -22 -14 -28 4 -2 7 3 12 12 12 9 0 16 -7 16
-16z m158 4 c-3 -7 -13 -15 -24 -17 -16 -3 -17 -1 -5 13 16 19 34 21 29 4z
m-78 -34 c0 -2 -7 -4 -15 -4 -8 0 -15 4 -15 10 0 5 7 7 15 4 8 -4 15 -8 15
-10z m320 -4 c11 -7 4 -10 -27 -10 -24 0 -43 5 -43 10 0 13 50 13 70 0z m-220
-15 c0 -14 -62 -34 -90 -29 -40 8 -31 17 28 25 26 3 50 7 55 8 4 0 7 -1 7 -4z
m85 -25 c3 -5 27 -10 53 -10 50 0 48 -17 -3 -20 -47 -3 -54 -1 -65 20 -11 20
3 30 15 10z m-164 -21 c11 -5 17 -14 14 -20 -10 -15 -23 -11 -35 11 -12 23 -7
25 21 9z m-197 -15 c11 -27 7 -37 -9 -24 -16 14 -20 40 -6 40 5 0 12 -7 15
-16z m386 -48 c0 -6 -7 -1 -15 10 -8 10 -15 23 -15 28 0 6 7 1 15 -10 8 -10
15 -23 15 -28z m-207 1 c-3 -6 -1 -7 6 -3 7 5 23 -5 40 -23 22 -23 25 -31 13
-31 -13 0 -12 -3 4 -16 19 -15 19 -15 -2 -9 -15 4 -24 -1 -31 -17 l-11 -23
-12 27 c-12 25 -50 36 -50 15 0 -5 7 -7 15 -3 16 6 22 -28 7 -38 -5 -3 -8 -39
-7 -81 1 -42 -2 -78 -6 -80 -9 -6 -37 38 -54 86 -14 39 -5 99 15 99 5 0 6 17
3 37 -6 36 -6 37 11 20 30 -29 49 -14 27 22 -6 9 -5 19 2 26 14 15 40 8 30 -8z
m202 -93 c-2 -30 -7 -60 -10 -65 -11 -16 -26 2 -19 23 3 11 7 30 9 41 3 25 15
57 21 57 2 0 2 -25 -1 -56z m410 -92 c-8 -8 -26 39 -19 50 5 8 11 1 16 -17 4
-16 6 -31 3 -33z m28 -92 l6 -45 -14 35 c-16 40 -19 79 -6 65 5 -6 11 -30 14
-55z m-553 -140 c0 -4 -9 -10 -20 -13 -15 -4 -20 0 -20 13 0 13 5 17 20 13 11
-3 20 -9 20 -13z m116 -27 c1 -15 -4 -19 -17 -16 -11 3 -19 0 -19 -6 0 -6 -7
-11 -15 -11 -9 0 -30 -7 -47 -16 -16 -9 -27 -11 -24 -6 4 6 2 13 -4 17 -17 11
-11 31 14 43 16 7 27 7 34 0 14 -14 65 -1 56 14 -4 6 -1 9 7 6 8 -3 14 -14 15
-25z m79 9 c-3 -3 -11 0 -18 7 -9 10 -8 11 6 5 10 -3 15 -9 12 -12z m170 -12
c3 -5 -1 -10 -10 -10 -9 0 -14 -4 -11 -9 3 -5 -3 -11 -14 -14 -11 -3 -20 -1
-20 4 0 5 5 9 11 9 6 0 9 7 5 15 -6 17 29 22 39 5z m-467 -12 c-3 -7 -11 -13
-18 -13 -7 0 -15 6 -17 13 -3 7 4 12 17 12 13 0 20 -5 18 -12z m290 -32 c-16
-15 -33 -20 -55 -17 -41 4 -43 21 -3 21 19 0 30 5 30 14 0 9 8 12 25 8 l26 -4
-23 -22z m108 25 c-3 -5 -16 -11 -28 -14 -22 -6 -22 -5 -4 8 22 17 40 20 32 6z
m222 -108 c-10 -2 -28 -2 -40 0 -13 2 -5 4 17 4 22 1 32 -1 23 -4z m-734 -82
c3 -5 -1 -11 -9 -14 -9 -4 -12 -1 -8 9 6 16 10 17 17 5z m4763 -23 c10 -17 5
-67 -9 -96 -11 -20 -8 -26 25 -53 20 -17 37 -35 37 -40 0 -16 -29 -10 -39 9
-9 15 -10 13 -11 -9 0 -27 -19 -42 -37 -31 -6 4 -11 20 -11 36 0 22 -10 38
-41 63 -22 19 -41 40 -41 47 0 16 37 50 75 70 36 19 42 20 52 4z m-8616 -28
c19 -11 27 -40 10 -40 -5 0 -11 -9 -14 -21 -9 -33 -27 -12 -27 32 0 42 2 44
31 29z m3076 -17 c2 -5 -8 -18 -22 -27 -24 -16 -25 -15 -25 2 0 33 38 54 47
25z m6151 -4 c-2 -6 -8 -10 -13 -10 -5 0 -11 4 -13 10 -2 6 4 11 13 11 9 0 15
-5 13 -11z m-9148 -63 c0 -32 -20 -44 -36 -22 -16 23 -7 46 17 46 13 0 19 -7
19 -24z m9460 5 c5 -11 10 -22 10 -25 0 -6 -84 -32 -126 -40 l-31 -5 15 33
c23 52 111 76 132 37z m-220 -113 c0 -20 -51 -58 -77 -58 -29 0 -29 17 -1 47
23 24 78 32 78 11z m-9413 -121 c28 -41 39 -102 23 -122 -18 -21 -31 -19 -63
11 -25 23 -28 31 -22 61 7 39 25 83 34 83 3 0 16 -15 28 -33z m3073 -47 c0
-13 -7 -20 -20 -20 -13 0 -20 7 -20 20 0 13 7 20 20 20 13 0 20 -7 20 -20z
m-2716 -125 c-9 -14 -19 -24 -21 -21 -7 7 16 46 28 46 5 0 2 -11 -7 -25z
m3026 -35 c0 -5 -2 -10 -4 -10 -3 0 -8 5 -11 10 -3 6 -1 10 4 10 6 0 11 -4 11
-10z m-3102 -63 c2 -9 -4 -20 -13 -23 -19 -8 -20 -6 -30 24 -6 21 -4 23 16 20
13 -2 25 -11 27 -21z"/>
<path d="M3868 4573 c-21 -5 -24 -23 -5 -23 8 0 24 -11 37 -25 27 -29 50 -33
50 -9 0 17 -45 65 -58 63 -4 -1 -15 -3 -24 -6z"/>
<path d="M4400 3400 c0 -61 21 -130 39 -130 19 0 21 38 5 81 -9 24 -18 59 -21
77 -9 54 -23 36 -23 -28z"/>
<path d="M7310 4000 c0 -5 7 -10 15 -10 8 0 15 5 15 10 0 6 -7 10 -15 10 -8 0
-15 -4 -15 -10z"/>
<path d="M7366 3792 c-3 -6 -1 -14 5 -17 15 -10 25 3 12 16 -7 7 -13 7 -17 1z"/>
<path d="M7401 3394 c0 -11 3 -14 6 -6 3 7 2 16 -1 19 -3 4 -6 -2 -5 -13z"/>
<path d="M7387 3253 c-4 -3 -7 -12 -7 -20 0 -20 28 -15 40 7 9 17 8 20 -8 20
-10 0 -22 -3 -25 -7z"/>
<path d="M7437 3108 c-20 -31 -30 -68 -19 -68 11 0 47 78 39 86 -3 3 -12 -5
-20 -18z"/>
<path d="M7497 3093 c-12 -11 -8 -23 8 -23 8 0 15 7 15 15 0 16 -12 20 -23 8z"/>
<path d="M3445 1757 c-4 -10 -5 -21 -1 -24 10 -10 18 4 13 24 -4 17 -4 17 -12
0z"/>
<path d="M5183 1430 c4 -14 7 -28 7 -32 0 -5 7 -8 15 -8 18 0 39 36 25 45 -5
3 -10 1 -10 -6 0 -7 -8 -5 -22 7 -21 19 -21 19 -15 -6z"/>
<path d="M7120 2508 c-11 -18 -18 -39 -15 -46 3 -8 5 -20 5 -28 0 -7 14 -21
31 -29 30 -16 30 -16 19 6 -7 12 -8 24 -3 28 15 10 36 70 29 86 -10 26 -45 17
-66 -17z"/>
<path d="M6978 2253 c7 -3 16 -2 19 1 4 3 -2 6 -13 5 -11 0 -14 -3 -6 -6z"/>
<path d="M6112 1762 c-28 -8 -27 -5 -18 -63 4 -31 2 -61 -8 -90 -8 -24 -18
-66 -22 -94 l-7 -50 49 40 c112 90 124 100 124 109 0 4 -11 5 -24 2 -35 -9
-56 3 -56 30 0 32 41 42 86 21 57 -28 86 0 42 40 -60 55 -109 71 -166 55z"/>
<path d="M5176 671 c-11 -12 -17 -23 -14 -26 8 -9 41 21 37 34 -3 9 -11 6 -23
-8z"/>
</g>
</svg>
