<svg width="635" height="635" viewBox="0 0 635 635" fill="none" xmlns="http://www.w3.org/2000/svg">
<path d="M282.747 1.26873C134.347 17.8021 17.1473 135.669 1.414 284.069C-1.25266 309.269 -0.0526629 345.669 4.214 370.469C22.3473 476.069 93.814 566.602 192.481 608.869C250.881 633.935 315.681 640.602 379.414 628.335C429.281 618.602 481.547 593.535 521.414 560.069C595.947 497.535 638.081 402.869 634.347 305.802C631.147 221.935 597.814 147.269 537.947 89.1354C486.614 39.4021 421.147 8.60206 350.481 1.1354C335.547 -0.464604 297.281 -0.331271 282.747 1.26873ZM352.081 25.8021C417.681 33.6687 478.081 63.0021 524.881 109.935C627.814 213.002 639.281 377.135 551.681 493.402C538.881 510.335 506.347 543.802 502.614 543.802C501.947 543.802 501.414 540.069 501.281 535.402C501.281 530.869 500.747 524.069 499.947 520.469C499.281 516.735 498.481 512.202 498.214 510.202C495.281 493.269 472.747 469.802 455.414 465.669C453.281 465.135 450.881 464.469 450.081 463.935C449.414 463.535 444.214 461.669 438.747 459.669C413.814 451.002 397.947 445.402 395.947 444.602C394.347 443.935 393.281 445.135 391.681 449.402C388.747 457.002 377.681 471.535 370.081 477.669C359.947 486.069 345.547 492.735 333.147 495.002C320.347 497.402 311.947 498.069 310.081 496.869C309.281 496.335 306.747 496.202 304.347 496.335C302.081 496.469 300.081 496.202 300.081 495.802C300.081 495.269 299.281 494.869 298.481 494.869C297.547 494.869 292.614 493.135 287.414 491.135C268.481 483.535 252.347 468.869 244.214 451.802C242.347 447.802 240.614 444.335 240.614 444.069C240.481 443.802 237.014 444.602 232.881 445.935C228.881 447.269 225.947 448.869 226.347 449.535C226.747 450.335 226.481 450.469 225.547 449.935C223.947 448.869 211.281 452.469 208.481 454.869C207.547 455.535 206.747 455.802 206.747 455.402C206.747 453.935 173.547 466.069 167.147 469.802C147.547 481.402 135.147 502.469 134.081 526.469C133.681 531.935 133.014 538.202 132.347 540.335L131.281 544.202L120.347 534.469C77.014 495.935 43.414 438.202 30.7473 380.469C-6.186 211.135 109.814 47.1354 281.414 25.8021C300.747 23.4021 332.214 23.4021 352.081 25.8021Z" fill="#464160"/>
<path d="M298.347 114.469C275.814 117.135 259.414 123.535 242.881 136.602C225.547 150.069 212.481 169.935 206.747 191.135C201.281 211.669 203.414 240.335 212.347 267.002C217.814 283.535 218.081 283.802 223.547 283.802C227.814 283.802 228.481 283.269 230.747 278.069C233.814 271.002 236.614 252.869 235.547 247.002C234.747 242.869 234.881 242.602 239.014 241.935C241.414 241.669 250.614 240.335 259.281 239.135C289.147 235.002 320.614 225.269 339.414 214.202C344.614 211.135 352.747 204.869 357.547 200.202L366.347 191.669L371.147 201.669C376.081 211.935 383.014 223.002 393.014 236.069C398.214 242.869 398.747 244.335 398.747 251.135C398.747 259.935 402.214 276.469 404.881 280.735C407.281 284.469 413.414 284.869 416.347 281.402C419.147 278.335 424.614 260.602 428.214 243.535C430.481 232.202 430.881 226.602 430.347 211.802C429.681 192.469 427.414 183.269 419.681 170.069C412.081 157.135 396.081 145.269 378.081 139.269C373.147 137.535 370.347 135.535 367.414 131.535C362.881 125.269 352.614 119.135 342.481 116.335C333.281 113.935 311.414 113.002 298.347 114.469Z" fill="#464160"/>
</svg>
